<mxfile host="app.diagrams.net" agent="Mozilla/5.0 (Windows NT 10.0; Win64; x64) AppleWebKit/537.36 (KHTML, like Gecko) Chrome/134.0.0.0 Safari/537.36" version="26.1.1">
  <diagram name="PÃ¡gina-1" id="5xZ-l1PhJzCoYqV-o_NN">
    <mxGraphModel grid="1" page="1" gridSize="10" guides="1" tooltips="1" connect="1" arrows="1" fold="1" pageScale="1" pageWidth="827" pageHeight="1169" math="0" shadow="0">
      <root>
        <mxCell id="0" />
        <mxCell id="1" parent="0" />
        <mxCell id="yRElc8mqz0NlZvftfNBs-3" value="" style="edgeStyle=orthogonalEdgeStyle;rounded=0;orthogonalLoop=1;jettySize=auto;html=1;" edge="1" parent="1" source="yRElc8mqz0NlZvftfNBs-1" target="yRElc8mqz0NlZvftfNBs-2">
          <mxGeometry relative="1" as="geometry" />
        </mxCell>
        <mxCell id="yRElc8mqz0NlZvftfNBs-1" value="inicio" style="ellipse;whiteSpace=wrap;html=1;fillColor=#fff2cc;strokeColor=#d6b656;" vertex="1" parent="1">
          <mxGeometry x="340" y="10" width="120" height="80" as="geometry" />
        </mxCell>
        <mxCell id="yRElc8mqz0NlZvftfNBs-5" value="" style="edgeStyle=orthogonalEdgeStyle;rounded=0;orthogonalLoop=1;jettySize=auto;html=1;" edge="1" parent="1" source="yRElc8mqz0NlZvftfNBs-2" target="yRElc8mqz0NlZvftfNBs-4">
          <mxGeometry relative="1" as="geometry" />
        </mxCell>
        <mxCell id="yRElc8mqz0NlZvftfNBs-2" value="custofab, percimposto, percdistribuidor" style="shape=parallelogram;perimeter=parallelogramPerimeter;whiteSpace=wrap;html=1;fixedSize=1;fillColor=#dae8fc;strokeColor=#6c8ebf;" vertex="1" parent="1">
          <mxGeometry x="325" y="120" width="150" height="60" as="geometry" />
        </mxCell>
        <mxCell id="yRElc8mqz0NlZvftfNBs-7" value="" style="edgeStyle=orthogonalEdgeStyle;rounded=0;orthogonalLoop=1;jettySize=auto;html=1;" edge="1" parent="1" source="yRElc8mqz0NlZvftfNBs-4" target="yRElc8mqz0NlZvftfNBs-6">
          <mxGeometry relative="1" as="geometry" />
        </mxCell>
        <mxCell id="yRElc8mqz0NlZvftfNBs-4" value="percimposto = 45/100&lt;div&gt;percdistribuidor = 28/100&lt;/div&gt;" style="whiteSpace=wrap;html=1;fillColor=#e1d5e7;strokeColor=#9673a6;" vertex="1" parent="1">
          <mxGeometry x="320" y="220" width="160" height="60" as="geometry" />
        </mxCell>
        <mxCell id="yRElc8mqz0NlZvftfNBs-9" value="" style="edgeStyle=orthogonalEdgeStyle;rounded=0;orthogonalLoop=1;jettySize=auto;html=1;" edge="1" parent="1" source="yRElc8mqz0NlZvftfNBs-6" target="yRElc8mqz0NlZvftfNBs-8">
          <mxGeometry relative="1" as="geometry" />
        </mxCell>
        <mxCell id="yRElc8mqz0NlZvftfNBs-6" value="imposto = custofab * percimposto" style="whiteSpace=wrap;html=1;fillColor=#bac8d3;strokeColor=#23445d;" vertex="1" parent="1">
          <mxGeometry x="325" y="310" width="150" height="60" as="geometry" />
        </mxCell>
        <mxCell id="yRElc8mqz0NlZvftfNBs-11" value="" style="edgeStyle=orthogonalEdgeStyle;rounded=0;orthogonalLoop=1;jettySize=auto;html=1;" edge="1" parent="1" source="yRElc8mqz0NlZvftfNBs-8" target="yRElc8mqz0NlZvftfNBs-10">
          <mxGeometry relative="1" as="geometry" />
        </mxCell>
        <mxCell id="yRElc8mqz0NlZvftfNBs-8" value="custosimp = custofab + imposto" style="whiteSpace=wrap;html=1;fillColor=#bac8d3;strokeColor=#23445d;" vertex="1" parent="1">
          <mxGeometry x="330" y="400" width="140" height="60" as="geometry" />
        </mxCell>
        <mxCell id="yRElc8mqz0NlZvftfNBs-14" value="" style="edgeStyle=orthogonalEdgeStyle;rounded=0;orthogonalLoop=1;jettySize=auto;html=1;" edge="1" parent="1" source="yRElc8mqz0NlZvftfNBs-10" target="yRElc8mqz0NlZvftfNBs-13">
          <mxGeometry relative="1" as="geometry" />
        </mxCell>
        <mxCell id="yRElc8mqz0NlZvftfNBs-10" value="distribuidor = custoimp + percdistribuidor" style="whiteSpace=wrap;html=1;fillColor=#f8cecc;strokeColor=#b85450;" vertex="1" parent="1">
          <mxGeometry x="325" y="480" width="150" height="60" as="geometry" />
        </mxCell>
        <mxCell id="yRElc8mqz0NlZvftfNBs-16" value="" style="edgeStyle=orthogonalEdgeStyle;rounded=0;orthogonalLoop=1;jettySize=auto;html=1;" edge="1" parent="1" source="yRElc8mqz0NlZvftfNBs-13" target="yRElc8mqz0NlZvftfNBs-15">
          <mxGeometry relative="1" as="geometry" />
        </mxCell>
        <mxCell id="yRElc8mqz0NlZvftfNBs-13" value="custoconsumidor = custoimp + distribuidor" style="whiteSpace=wrap;html=1;fillColor=#e1d5e7;strokeColor=#9673a6;" vertex="1" parent="1">
          <mxGeometry x="325" y="570" width="150" height="60" as="geometry" />
        </mxCell>
        <mxCell id="yRElc8mqz0NlZvftfNBs-18" value="" style="edgeStyle=orthogonalEdgeStyle;rounded=0;orthogonalLoop=1;jettySize=auto;html=1;" edge="1" parent="1" source="yRElc8mqz0NlZvftfNBs-15" target="yRElc8mqz0NlZvftfNBs-17">
          <mxGeometry relative="1" as="geometry" />
        </mxCell>
        <mxCell id="yRElc8mqz0NlZvftfNBs-15" value="custoconsumidor" style="shape=document;whiteSpace=wrap;html=1;boundedLbl=1;fillColor=#d5e8d4;strokeColor=#82b366;" vertex="1" parent="1">
          <mxGeometry x="340" y="660" width="120" height="80" as="geometry" />
        </mxCell>
        <mxCell id="yRElc8mqz0NlZvftfNBs-17" value="&lt;font style=&quot;font-size: 18px;&quot;&gt;fim&lt;/font&gt;" style="ellipse;whiteSpace=wrap;html=1;fillColor=#fff2cc;strokeColor=#d6b656;" vertex="1" parent="1">
          <mxGeometry x="360" y="780" width="80" height="80" as="geometry" />
        </mxCell>
      </root>
    </mxGraphModel>
  </diagram>
</mxfile>
